<svg version="1.1" viewBox="0 0 884.6 663.43" xmlns="http://www.w3.org/2000/svg" xmlns:xlink="http://www.w3.org/1999/xlink">
<defs>
<clipPath id="d">
<path transform="translate(-788.96 -508.68)" d="m0 1080h1080v-1080h-1080z"/>
</clipPath>
<clipPath id="c">
<path transform="translate(-208.27 -501.86)" d="m0 1080h1080v-1080h-1080z"/>
</clipPath>
<clipPath id="b">
<path transform="translate(-455.12 -647.56)" d="m0 1080h1080v-1080h-1080z"/>
</clipPath>
<clipPath id="a">
<path transform="translate(-716.54 -686.99)" d="m0 1080h1080v-1080h-1080z"/>
</clipPath>
</defs>
<g transform="translate(-277.7 -388.29)" fill="#e8ecf4">
<path transform="matrix(1.3333 0 0 -1.3333 1051.9 761.76)" d="m0 0c-4.901 0-10.085-1.58-14.905-4.678-13.792-8.881-21.224-27.29-20.374-50.508 0.243-6.572 0.932-12.982 2.046-19.169 33.861 12.88 47.652 35.168 49.11 52.594 0.851 10.288-2.673 17.67-6.622 19.635-2.835 1.427-5.994 2.126-9.255 2.126m60.047-217.46c-38.276 0-76.289 14.136-104.99 39.704-10.085 8.972-18.895 19.533-26.287 31.33-58.751-5.306-107.66 17.396-150.63 69.686l48.078 39.492c25.234-30.712 49.334-45.942 79.287-47.785-1.621 8.982-2.613 18.207-2.957 27.604-1.661 45.708 16.161 84.004 48.888 105.08 26.672 17.163 58.67 19.35 85.645 5.883 27.705-13.853 43.724-45.435 40.788-80.461-2.957-35.451-26.51-79.357-82.831-103.1 0.466-0.426 0.912-0.851 1.377-1.256 20.475-18.227 49.982-26.986 77.12-22.956l9.234-61.525c-7.533-1.134-15.148-1.681-22.722-1.691" clip-path="url(#d)"/>
<path transform="matrix(1.3333 0 0 -1.3333 277.7 770.85)" d="m0 0 14.513 286.92h209.22z" clip-path="url(#c)"/>
<path transform="matrix(1.3333 0 0 -1.3333 606.83 576.58)" d="m0 0-14.513-291.4h-209.22z" clip-path="url(#b)"/>
<path transform="matrix(1.3333 0 0 -1.3333 955.39 524.01)" d="m0 0c0-56.218-45.574-101.79-101.79-101.79-56.218 0-101.79 45.573-101.79 101.79s45.574 101.79 101.79 101.79c56.217 0 101.79-45.573 101.79-101.79" clip-path="url(#a)"/>
</g>
</svg>
